{"accessors" : [{"bufferView" : 0, "byteOffset" : 0, "componentType" : 5123, "count" : 8646, "type" : "SCALAR", "max" : [8645], "min" : [0]}, {"bufferView" : 1, "byteOffset" : 0, "componentType" : 5126, "count" : 8646, "type" : "VEC3", "max" : [61.87786865234375, 55.39202880859375, 2.4902074337005615], "min" : [-1170.171142578125, -313.3608703613281, -976.5513916015625], "name" : "POSITION"}, {"bufferView" : 1, "byteOffset" : 12, "componentType" : 5126, "count" : 8646, "type" : "VEC3", "max" : [1.0000044107437134, 1.0000044107437134, 1.0000044107437134], "min" : [-1.0000044107437134, -1.0000044107437134, -1.0000044107437134], "name" : "NORMAL"}, {"bufferView" : 1, "byteOffset" : 24, "componentType" : 5126, "count" : 8646, "type" : "VEC2", "max" : [2837.29052734375, 3063.85107421875], "min" : [-2836.29052734375, -3064.85107421875], "name" : "TEXCOORD_0"}, {"bufferView" : 0, "byteOffset" : 17292, "componentType" : 5123, "count" : 9504, "type" : "SCALAR", "max" : [9503], "min" : [0]}, {"bufferView" : 2, "byteOffset" : 0, "componentType" : 5126, "count" : 9504, "type" : "VEC3", "max" : [61.877838134765625, 52.96589660644531, 90.48527526855469], "min" : [-1178.043212890625, -310.74615478515625, -997.8882446289062], "name" : "POSITION"}, {"bufferView" : 2, "byteOffset" : 12, "componentType" : 5126, "count" : 9504, "type" : "VEC3", "max" : [1.0000044107437134, 1.0000044107437134, 1.0000044107437134], "min" : [-1.0000044107437134, -1.0000044107437134, -1.0000044107437134], "name" : "NORMAL"}, {"bufferView" : 2, "byteOffset" : 24, "componentType" : 5126, "count" : 9504, "type" : "VEC2", "max" : [881.5592651367188, 163.10177612304688], "min" : [-172.7479248046875, -831.4718017578125], "name" : "TEXCOORD_0"}, {"bufferView" : 0, "byteOffset" : 36300, "componentType" : 5123, "count" : 180, "type" : "SCALAR", "max" : [179], "min" : [0]}, {"bufferView" : 3, "byteOffset" : 0, "componentType" : 5126, "count" : 180, "type" : "VEC3", "max" : [55.83819580078125, -397.9075012207031, 40.10285949707031], "min" : [-1216.53564453125, -406.5906066894531, -977.4055786132812], "name" : "POSITION"}, {"bufferView" : 3, "byteOffset" : 12, "componentType" : 5126, "count" : 180, "type" : "VEC3", "max" : [1.0000044107437134, 1.0000044107437134, 1.0000044107437134], "min" : [-1.0000044107437134, 0, -1.0000040531158447], "name" : "NORMAL"}, {"bufferView" : 3, "byteOffset" : 24, "componentType" : 5126, "count" : 180, "type" : "VEC2", "max" : [1057.2940673828125, 531.260498046875], "min" : [-1056.29443359375, -485.08050537109375], "name" : "TEXCOORD_0"}, {"bufferView" : 0, "byteOffset" : 36660, "componentType" : 5123, "count" : 306, "type" : "SCALAR", "max" : [305], "min" : [0]}, {"bufferView" : 4, "byteOffset" : 0, "componentType" : 5126, "count" : 306, "type" : "VEC3", "max" : [61.87774658203125, -267.3691711425781, -41.02001953125], "min" : [-1119.473388671875, -397.9075927734375, -976.5513916015625], "name" : "POSITION"}, {"bufferView" : 4, "byteOffset" : 12, "componentType" : 5126, "count" : 306, "type" : "VEC3", "max" : [1.0000044107437134, 1.0000044107437134, 1.0000044107437134], "min" : [-1.0000044107437134, -1.0000044107437134, -1.0000044107437134], "name" : "NORMAL"}, {"bufferView" : 4, "byteOffset" : 24, "componentType" : 5126, "count" : 306, "type" : "VEC2", "max" : [5.10275411605835, 3.921442985534668], "min" : [-4.102753639221191, -3.1288418769836426], "name" : "TEXCOORD_0"}, {"bufferView" : 0, "byteOffset" : 37272, "componentType" : 5123, "count" : 414, "type" : "SCALAR", "max" : [413], "min" : [0]}, {"bufferView" : 5, "byteOffset" : 0, "componentType" : 5126, "count" : 414, "type" : "VEC3", "max" : [26.61861801147461, 45.57915496826172, 0.941825807094574], "min" : [-1168.3668212890625, -259.7571105957031, -957.99609375], "name" : "POSITION"}, {"bufferView" : 5, "byteOffset" : 12, "componentType" : 5126, "count" : 414, "type" : "VEC3", "max" : [0, 1.3077248173232192E-09, 1.0000044107437134], "min" : [-1.0000044107437134, 0, 0], "name" : "NORMAL"}, {"bufferView" : 5, "byteOffset" : 24, "componentType" : 5126, "count" : 414, "type" : "VEC2", "max" : [1, -0], "min" : [0, -1], "name" : "TEXCOORD_0"}, {"bufferView" : 0, "byteOffset" : 38100, "componentType" : 5123, "count" : 6, "type" : "SCALAR", "max" : [5], "min" : [0]}, {"bufferView" : 6, "byteOffset" : 0, "componentType" : 5126, "count" : 6, "type" : "VEC3", "max" : [-880.356689453125, -323.8687438964844, -93.77835083007812], "min" : [-928.055419921875, -397.9635925292969, -93.77835083007812], "name" : "POSITION"}, {"bufferView" : 6, "byteOffset" : 12, "componentType" : 5126, "count" : 6, "type" : "VEC3", "max" : [0, 0, 1.0000044107437134], "min" : [0, 0, 1.0000044107437134], "name" : "NORMAL"}, {"bufferView" : 6, "byteOffset" : 24, "componentType" : 5126, "count" : 6, "type" : "VEC2", "max" : [1, -0], "min" : [0, -0.6706354022026062], "name" : "TEXCOORD_0"}, {"bufferView" : 0, "byteOffset" : 38112, "componentType" : 5123, "count" : 48, "type" : "SCALAR", "max" : [47], "min" : [0]}, {"bufferView" : 7, "byteOffset" : 0, "componentType" : 5126, "count" : 48, "type" : "VEC3", "max" : [65.333251953125, 52.96580505371094, -0.367828369140625], "min" : [-1140.49072265625, -397.9075927734375, -985.7763061523438], "name" : "POSITION"}, {"bufferView" : 7, "byteOffset" : 12, "componentType" : 5126, "count" : 48, "type" : "VEC3", "max" : [1.0000044107437134, 1.0000044107437134, 1.8996054507169902E-07], "min" : [-1.709475339062294E-09, -2.7473367936181603E-07, -1.0000044107437134], "name" : "NORMAL"}, {"bufferView" : 7, "byteOffset" : 24, "componentType" : 5126, "count" : 48, "type" : "VEC2", "max" : [912.7523193359375, 122.08157348632812], "min" : [-131.72792053222656, -860.3165283203125], "name" : "TEXCOORD_0"}, {"bufferView" : 0, "byteOffset" : 38208, "componentType" : 5123, "count" : 270, "type" : "SCALAR", "max" : [269], "min" : [0]}, {"bufferView" : 8, "byteOffset" : 0, "componentType" : 5126, "count" : 270, "type" : "VEC3", "max" : [-0.1051025390625, -267.36920166015625, -47.290283203125], "min" : [-821.61572265625, -397.907470703125, -47.290374755859375], "name" : "POSITION"}, {"bufferView" : 8, "byteOffset" : 12, "componentType" : 5126, "count" : 270, "type" : "VEC3", "max" : [1.316886053329136E-13, 1.4183602843331755E-06, 1.0000044107437134], "min" : [-8.083816283033229E-07, -6.715906124554749E-07, 1.0000042915344238], "name" : "NORMAL"}, {"bufferView" : 8, "byteOffset" : 24, "componentType" : 5126, "count" : 270, "type" : "VEC2", "max" : [0.9497973918914795, -0], "min" : [0.2844218909740448, -0.34130555391311646], "name" : "TEXCOORD_0"}, {"bufferView" : 0, "byteOffset" : 38748, "componentType" : 5123, "count" : 180, "type" : "SCALAR", "max" : [179], "min" : [0]}, {"bufferView" : 9, "byteOffset" : 0, "componentType" : 5126, "count" : 180, "type" : "VEC3", "max" : [-1021.1783447265625, 55.39208984375, -10.808349609375], "min" : [-1154.67578125, -262.3130798339844, -124.22189331054688], "name" : "POSITION"}, {"bufferView" : 9, "byteOffset" : 12, "componentType" : 5126, "count" : 180, "type" : "VEC3", "max" : [2.7543951546249446E-06, 1.367586082778871E-05, 0.9993096590042114], "min" : [-0.9987236857414246, -1.0000044107437134, -4.11900828112266E-06], "name" : "NORMAL"}, {"bufferView" : 9, "byteOffset" : 24, "componentType" : 5126, "count" : 180, "type" : "VEC2", "max" : [1, -0.9955497980117798], "min" : [0, -1], "name" : "TEXCOORD_0"}, {"bufferView" : 0, "byteOffset" : 39108, "componentType" : 5123, "count" : 3726, "type" : "SCALAR", "max" : [3725], "min" : [0]}, {"bufferView" : 10, "byteOffset" : 0, "componentType" : 5126, "count" : 3726, "type" : "VEC3", "max" : [26.618391036987305, 55.39204406738281, 2.4902801513671875], "min" : [-1170.171142578125, -168.44715881347656, -957.9961547851562], "name" : "POSITION"}, {"bufferView" : 10, "byteOffset" : 12, "componentType" : 5126, "count" : 3726, "type" : "VEC3", "max" : [1.0000044107437134, 1.0000044107437134, 1.0000044107437134], "min" : [-1.0000044107437134, -1.0000044107437134, -1.0000044107437134], "name" : "NORMAL"}, {"bufferView" : 10, "byteOffset" : 24, "componentType" : 5126, "count" : 3726, "type" : "VEC2", "max" : [1, -0], "min" : [0, -1], "name" : "TEXCOORD_0"}], "asset" : {"generator" : "Aspose.3D 23.2", "version" : "2.0"}, "buffers" : [{"uri" : "data:application/octet-stream;base64,", "byteLength" : 791564}], "bufferViews" : [{"buffer" : 0, "byteOffset" : 0, "byteLength" : 46560, "target" : 34963}, {"buffer" : 0, "byteOffset" : 46564, "byteLength" : 276672, "byteStride" : 32, "target" : 34962}, {"buffer" : 0, "byteOffset" : 323240, "byteLength" : 304128, "byteStride" : 32, "target" : 34962}, {"buffer" : 0, "byteOffset" : 627372, "byteLength" : 5760, "byteStride" : 32, "target" : 34962}, {"buffer" : 0, "byteOffset" : 633136, "byteLength" : 9792, "byteStride" : 32, "target" : 34962}, {"buffer" : 0, "byteOffset" : 642932, "byteLength" : 13248, "byteStride" : 32, "target" : 34962}, {"buffer" : 0, "byteOffset" : 656184, "byteLength" : 192, "byteStride" : 32, "target" : 34962}, {"buffer" : 0, "byteOffset" : 656380, "byteLength" : 1536, "byteStride" : 32, "target" : 34962}, {"buffer" : 0, "byteOffset" : 657920, "byteLength" : 8640, "byteStride" : 32, "target" : 34962}, {"buffer" : 0, "byteOffset" : 666564, "byteLength" : 5760, "byteStride" : 32, "target" : 34962}, {"buffer" : 0, "byteOffset" : 672328, "byteLength" : 119232, "byteStride" : 32, "target" : 34962}], "materials" : [{"name" : "Material #40", "pbrMetallicRoughness" : {"baseColorFactor" : [0.7843137979507446, 0.7843137979507446, 0.7843137979507446, 1], "metallicFactor" : 0, "roughnessFactor" : 0}, "emissiveFactor" : [0, 0, 0], "alphaMode" : "OPAQUE", "doubleSided" : false}, {"name" : "Material #41", "pbrMetallicRoughness" : {"baseColorFactor" : [0.019607843831181526, 0.019607843831181526, 0.019607843831181526, 1], "metallicFactor" : 0, "roughnessFactor" : 0}, "emissiveFactor" : [0, 0, 0], "alphaMode" : "OPAQUE", "doubleSided" : false}, {"name" : "Material #44", "pbrMetallicRoughness" : {"baseColorFactor" : [0.5254902243614197, 0.5529412031173706, 0.5529412031173706, 1], "metallicFactor" : 0, "roughnessFactor" : 0}, "emissiveFactor" : [0, 0, 0], "alphaMode" : "OPAQUE", "doubleSided" : false}, {"name" : "Material #45", "pbrMetallicRoughness" : {"baseColorFactor" : [0.5, 0.5, 0.5, 1], "metallicFactor" : 0, "roughnessFactor" : 0}, "emissiveFactor" : [0, 0, 0], "alphaMode" : "OPAQUE", "doubleSided" : false}, {"name" : "Material #46", "pbrMetallicRoughness" : {"baseColorFactor" : [0, 0, 0, 1], "metallicFactor" : 0, "roughnessFactor" : 0}, "emissiveFactor" : [0, 0, 0], "alphaMode" : "OPAQUE", "doubleSided" : false}, {"name" : "Material #48", "pbrMetallicRoughness" : {"baseColorFactor" : [0, 0, 0, 1], "metallicFactor" : 0, "roughnessFactor" : 0}, "emissiveFactor" : [0, 0, 0], "alphaMode" : "OPAQUE", "doubleSided" : false}, {"name" : "Material #49", "pbrMetallicRoughness" : {"baseColorFactor" : [0.3176470696926117, 0.3176470696926117, 0.3176470696926117, 1], "metallicFactor" : 0, "roughnessFactor" : 0}, "emissiveFactor" : [0, 0, 0], "alphaMode" : "OPAQUE", "doubleSided" : false}, {"name" : "Material #50", "pbrMetallicRoughness" : {"baseColorFactor" : [0, 0, 0, 1], "metallicFactor" : 0, "roughnessFactor" : 0}, "emissiveFactor" : [0, 0, 0], "alphaMode" : "OPAQUE", "doubleSided" : false}, {"name" : "Material #51", "pbrMetallicRoughness" : {"baseColorFactor" : [0, 0, 0, 1], "metallicFactor" : 0, "roughnessFactor" : 0}, "emissiveFactor" : [0, 0, 0], "alphaMode" : "OPAQUE", "doubleSided" : false}, {"name" : "Material #52", "pbrMetallicRoughness" : {"baseColorFactor" : [0, 0, 0, 1], "metallicFactor" : 0, "roughnessFactor" : 0}, "emissiveFactor" : [0, 0, 0], "alphaMode" : "OPAQUE", "doubleSided" : false}], "meshes" : [{"primitives" : [{"attributes" : {"POSITION" : 1, "NORMAL" : 2, "TEXCOORD_0" : 3}, "indices" : 0, "material" : 0, "mode" : 4}, {"attributes" : {"POSITION" : 5, "NORMAL" : 6, "TEXCOORD_0" : 7}, "indices" : 4, "material" : 1, "mode" : 4}, {"attributes" : {"POSITION" : 9, "NORMAL" : 10, "TEXCOORD_0" : 11}, "indices" : 8, "material" : 2, "mode" : 4}, {"attributes" : {"POSITION" : 13, "NORMAL" : 14, "TEXCOORD_0" : 15}, "indices" : 12, "material" : 3, "mode" : 4}, {"attributes" : {"POSITION" : 17, "NORMAL" : 18, "TEXCOORD_0" : 19}, "indices" : 16, "material" : 4, "mode" : 4}, {"attributes" : {"POSITION" : 21, "NORMAL" : 22, "TEXCOORD_0" : 23}, "indices" : 20, "material" : 5, "mode" : 4}, {"attributes" : {"POSITION" : 25, "NORMAL" : 26, "TEXCOORD_0" : 27}, "indices" : 24, "material" : 6, "mode" : 4}, {"attributes" : {"POSITION" : 29, "NORMAL" : 30, "TEXCOORD_0" : 31}, "indices" : 28, "material" : 7, "mode" : 4}, {"attributes" : {"POSITION" : 33, "NORMAL" : 34, "TEXCOORD_0" : 35}, "indices" : 32, "material" : 8, "mode" : 4}, {"attributes" : {"POSITION" : 37, "NORMAL" : 38, "TEXCOORD_0" : 39}, "indices" : 36, "material" : 9, "mode" : 4}], "name" : ""}], "nodes" : [{"matrix" : [1.900944, 0, 0, 0, 0, 2.2149649999999705, 3.608636060718734E-07, 0, 0, -3.608636060718734E-07, 2.2149649999999705, 0, 1092.39990234375, 900.6192016601562, 882.7493286132812, 1], "mesh" : 0, "name" : "Plane109"}], "scene" : 0, "scenes" : [{"nodes" : [0]}]}